# File created by Blade
# Date/Time:  Wed Jan 21 18:34:41 2015
# Frame Rate: 120.000 fps
#------------------------------------------------------
:FULLY-SPECIFIED
:DEGREES
2192
root 2.475421 32.742760 -6.833710 42.991642 2.793673 1.114793
RightUpLeg -37.616905 -17.302866 8.493858
RightLeg -2.496327 -0.000000 0.000000
RightFoot -8.796238 -0.901703 22.590796
RightToeBase 21.354496 -0.000000 -0.000000
LeftUpLeg -38.958274 11.512917 -3.650924
LeftLeg 0.578378 -0.000000 -0.000000
LeftFoot -3.407257 -7.584809 -15.073779
LeftToeBase 3.316790 -0.000000 -0.000000
Spine -49.212527 -0.178654 -2.352296
RightShoulder -12.120211 26.157373 -43.363904
RightArm 23.671669 -28.392583 44.559703
RightForeArm 4.383721 0.000000 0.518198
RightHand 14.374785 0.000000 1.015867
RightHandThumb1 -24.326973 -0.000000 -32.862282
LeftShoulder -3.813549 -6.350162 37.388032
LeftArm 43.108918 5.325859 -33.821184
LeftForeArm 21.935579 -0.000000 1.068479
LeftHand -19.159480 0.000000 0.481537
LeftHandThumb1 -26.253704 0.000000 33.147579
Head 1.211154 -3.874677 6.111906
2193
root 2.478712 32.743434 -6.817646 43.034375 2.824825 1.125725
RightUpLeg -37.629298 -17.355031 8.523427
RightLeg -2.511382 -0.000000 0.000000
RightFoot -8.770797 -0.834531 22.695276
RightToeBase 21.299305 -0.000000 -0.000000
LeftUpLeg -38.965144 11.476270 -3.642100
LeftLeg 0.565053 -0.000000 -0.000000
LeftFoot -3.402186 -7.581943 -15.092756
LeftToeBase 3.294045 -0.000000 -0.000000
Spine -49.145547 -0.181159 -2.345281
RightShoulder -12.442446 25.830377 -43.481102
RightArm 22.819196 -27.647661 44.517065
RightForeArm 3.944938 -0.000000 0.329744
RightHand 14.532200 0.000000 1.089194
RightHandThumb1 -24.326973 -0.000000 -32.862282
LeftShoulder -4.182779 -5.952338 37.379648
LeftArm 42.243490 4.790960 -33.781395
LeftForeArm 21.906876 -0.000000 1.021794
LeftHand -19.307607 -0.000000 0.228458
LeftHandThumb1 -26.253704 0.000000 33.147579
Head 1.005011 -3.857339 6.084612
2194
root 2.481599 32.743534 -6.801796 43.083778 2.845424 1.133378
RightUpLeg -37.639794 -17.371563 8.535567
RightLeg -2.531529 -0.000000 0.000000
RightFoot -8.793390 -0.877817 22.603599
RightToeBase 21.338646 -0.000000 -0.000000
LeftUpLeg -38.978422 11.453868 -3.641290
LeftLeg 0.546634 -0.000000 -0.000000
LeftFoot -3.405968 -7.582420 -15.084089
LeftToeBase 3.307230 -0.000000 -0.000000
Spine -49.091773 -0.177179 -2.330140
RightShoulder -12.742994 25.532283 -43.595131
RightArm 21.978481 -27.182249 44.326875
RightForeArm 3.731470 -0.000000 0.242993
RightHand 14.760703 -0.000000 0.780819
RightHandThumb1 -24.326973 -0.000000 -32.862282
LeftShoulder -4.520046 -5.780043 37.421446
LeftArm 41.211002 4.386654 -33.839592
LeftForeArm 21.965587 -0.000000 0.884225
LeftHand -19.365536 0.000000 0.125641
LeftHandThumb1 -26.253704 0.000000 33.147579
Head 0.838075 -3.796357 6.071201
2195
root 2.484200 32.743816 -6.786443 43.140616 2.856334 1.139297
RightUpLeg -37.662099 -17.376568 8.540991
RightLeg -2.546502 -0.000000 0.000000
RightFoot -8.797119 -0.880591 22.631181
RightToeBase 21.320753 -0.000000 -0.000000
LeftUpLeg -39.005261 11.442428 -3.649362
LeftLeg 0.540617 -0.000000 -0.000000
LeftFoot -3.406907 -7.594395 -15.099468
LeftToeBase 3.319795 -0.000000 -0.000000
Spine -49.048655 -0.143677 -2.373476
RightShoulder -13.055751 25.197064 -43.678370
RightArm 21.160655 -26.800680 44.035613
RightForeArm 3.600700 0.000000 0.138186
RightHand 14.846002 -0.000000 0.606683
RightHandThumb1 -24.326973 -0.000000 -32.862282
LeftShoulder -4.788090 -5.649188 37.480546
LeftArm 40.141900 4.056617 -33.815897
LeftForeArm 22.007442 0.000000 0.813030
LeftHand -19.441244 -0.000000 0.021077
LeftHandThumb1 -26.253704 0.000000 33.147579
Head 0.678124 -3.827409 6.090331
2196
root 2.485881 32.743787 -6.770880 43.194145 2.880300 1.145533
RightUpLeg -37.677293 -17.383829 8.551152
RightLeg -2.566401 -0.000000 0.000000
RightFoot -8.810879 -0.898454 22.628215
RightToeBase 21.329686 -0.000000 -0.000000
LeftUpLeg -39.026004 11.415152 -3.641176
LeftLeg 0.529093 -0.000000 -0.000000
LeftFoot -3.412412 -7.590707 -15.083549
LeftToeBase 3.298914 -0.000000 -0.000000
Spine -48.992850 -0.117692 -2.402873
RightShoulder -13.390617 24.847154 -43.794968
RightArm 20.365591 -26.352212 43.786455
RightForeArm 3.429097 -0.000000 -0.030786
RightHand 15.026429 0.000000 0.431664
RightHandThumb1 -24.326973 -0.000000 -32.862282
LeftShoulder -5.085606 -5.507289 37.543346
LeftArm 39.101970 3.541202 -33.938599
LeftForeArm 22.099028 -0.000000 0.704933
LeftHand -19.433437 -0.000000 0.101742
LeftHandThumb1 -26.253704 0.000000 33.147579
Head 0.491233 -3.839205 6.100053
2197
root 2.486735 32.744422 -6.754457 43.231172 2.888739 1.144520
RightUpLeg -37.681850 -17.393188 8.564766
RightLeg -2.574553 -0.000000 0.000000
RightFoot -8.812364 -0.895837 22.640966
RightToeBase 21.329721 -0.000000 -0.000000
LeftUpLeg -39.031761 11.418865 -3.641585
LeftLeg 0.522647 -0.000000 -0.000000
LeftFoot -3.415478 -7.609058 -15.122149
LeftToeBase 3.316079 -0.000000 -0.000000
Spine -48.920278 -0.085040 -2.435030
RightShoulder -13.720654 24.560984 -43.905564
RightArm 19.532747 -26.011211 43.502488
RightForeArm 3.312414 -0.000000 -0.173633
RightHand 15.237239 -0.000000 0.320400
RightHandThumb1 -24.326973 -0.000000 -32.862282
LeftShoulder -5.415055 -5.170717 37.594863
LeftArm 38.185782 2.814818 -34.075797
LeftForeArm 22.058249 -0.000000 0.607040
LeftHand -19.631159 -0.000000 0.033188
LeftHandThumb1 -26.253704 0.000000 33.147579
Head 0.322256 -3.835411 6.117422
2198
root 2.488331 32.744692 -6.738697 43.265160 2.901144 1.148840
RightUpLeg -37.673644 -17.403169 8.569898
RightLeg -2.602339 -0.000000 0.000000
RightFoot -8.806872 -0.902222 22.659861
RightToeBase 21.303595 -0.000000 -0.000000
LeftUpLeg -39.024013 11.399713 -3.633278
LeftLeg 0.495306 -0.000000 -0.000000
LeftFoot -3.406369 -7.607560 -15.132465
LeftToeBase 3.290072 -0.000000 -0.000000
Spine -48.838081 -0.032755 -2.490433
RightShoulder -14.065638 24.213128 -44.036597
RightArm 18.720113 -25.760915 43.177055
RightForeArm 3.275188 -0.000000 -0.228405
RightHand 14.704221 -0.000000 0.568686
RightHandThumb1 -24.326973 -0.000000 -32.862282
LeftShoulder -5.690692 -5.078290 37.701077
LeftArm 37.117844 2.293149 -34.247121
LeftForeArm 22.051230 -0.000000 0.467527
LeftHand -19.595573 -0.000000 -0.181111
LeftHandThumb1 -26.253704 0.000000 33.147579
Head 0.105276 -3.897981 6.152889
2199
root 2.490741 32.745221 -6.723365 43.303542 2.909995 1.150318
RightUpLeg -37.681146 -17.398696 8.569667
RightLeg -2.604027 -0.000000 0.000000
RightFoot -8.817274 -0.921187 22.649878
RightToeBase 21.267943 -0.000000 -0.000000
LeftUpLeg -39.032910 11.402894 -3.643023
LeftLeg 0.488278 -0.000000 -0.000000
LeftFoot -3.409234 -7.630631 -15.133073
LeftToeBase 3.302390 -0.000000 -0.000000
Spine -48.759377 0.026174 -2.548425
RightShoulder -14.394801 23.850020 -44.159051
RightArm 17.908755 -25.365754 42.886663
RightForeArm 3.167136 -0.000000 -0.372489
RightHand 14.532223 -0.000000 0.764914
RightHandThumb1 -24.326973 -0.000000 -32.862282
LeftShoulder -5.959649 -4.812069 37.773877
LeftArm 36.130407 1.489763 -34.458471
LeftForeArm 22.120310 -0.000000 0.413871
LeftHand -19.984277 -0.000000 -0.041774
LeftHandThumb1 -26.253704 0.000000 33.147579
Head -0.077244 -3.933873 6.185683
2200
root 2.493617 32.745800 -6.708203 43.350125 2.922978 1.159370
RightUpLeg -37.700635 -17.402349 8.565013
RightLeg -2.601480 -0.000000 0.000000
RightFoot -8.822189 -0.905707 22.728245
RightToeBase 21.236482 -0.000000 -0.000000
LeftUpLeg -39.038649 11.377823 -3.642729
LeftLeg 0.462022 -0.000000 -0.000000
LeftFoot -3.403002 -7.620857 -15.134999
LeftToeBase 3.289596 -0.000000 -0.000000
Spine -48.677810 0.065634 -2.576383
RightShoulder -14.737878 23.505340 -44.326566
RightArm 17.113552 -25.013964 42.606997
RightForeArm 3.227004 -0.000000 -0.497132
RightHand 14.553477 0.000000 0.744915
RightHandThumb1 -24.326973 -0.000000 -32.862282
LeftShoulder -6.325391 -4.442293 37.813836
LeftArm 35.298273 0.638578 -34.606487
LeftForeArm 22.088318 -0.000000 0.272159
LeftHand -19.911920 0.000000 -0.254887
LeftHandThumb1 -26.253704 0.000000 33.147579
Head -0.291662 -3.909504 6.162504
2201
root 2.495554 32.746808 -6.691400 43.386115 2.941598 1.163017
RightUpLeg -37.703807 -17.429338 8.584693
RightLeg -2.612963 -0.000000 0.000000
RightFoot -8.833866 -0.918501 22.670116
RightToeBase 21.284887 -0.000000 -0.000000
LeftUpLeg -39.040546 11.385381 -3.653981
LeftLeg 0.444293 -0.000000 -0.000000
LeftFoot -3.388761 -7.655096 -15.150338
LeftToeBase 3.297710 -0.000000 -0.000000
Spine -48.580133 0.129588 -2.633431
RightShoulder -15.110266 23.114754 -44.489072
RightArm 16.287267 -24.554913 42.335037
RightForeArm 3.192837 -0.000000 -0.575717
RightHand 14.712920 -0.000000 0.873391
RightHandThumb1 -24.326973 -0.000000 -32.862282
LeftShoulder -6.631639 -4.268607 37.912415
LeftArm 34.313703 -0.056415 -34.771644
LeftForeArm 22.108487 -0.000000 0.167882
LeftHand -20.036808 0.000000 -0.212994
LeftHandThumb1 -26.253704 0.000000 33.147579
Head -0.543564 -3.949000 6.157249
